<?xml version="1.0" standalone="no"?><!DOCTYPE svg PUBLIC "-//W3C//DTD SVG 1.1//EN" "http://www.w3.org/Graphics/SVG/1.1/DTD/svg11.dtd"><svg t="1744800097717" class="icon" viewBox="0 0 1024 1024" version="1.1" xmlns="http://www.w3.org/2000/svg" p-id="4563" xmlns:xlink="http://www.w3.org/1999/xlink" width="256" height="256"><path d="M938.666667 576h-853.333334l-64-85.333333 85.333334-85.333334h810.666666l85.333334 85.333334-64 85.333333z" fill="#12376B" p-id="4564"></path><path d="M874.666667 1002.666667H149.333333c-23.552 0-42.666667-19.114667-42.666666-42.666667V64c0-23.552 19.114667-42.666667 42.666666-42.666667h512l256 256v682.666667c0 23.552-19.114667 42.666667-42.666666 42.666667z" fill="#E6E6E6" p-id="4565"></path><path d="M661.333333 21.333333v213.333334c0 23.552 19.114667 42.666667 42.666667 42.666666h213.333333l-256-256z" fill="#B3B3B3" p-id="4566"></path><path d="M960 874.666667H64c-23.552 0-42.666667-19.114667-42.666667-42.666667v-341.333333h981.333334v341.333333c0 23.552-19.114667 42.666667-42.666667 42.666667z" fill="#27549B" p-id="4567"></path><path d="M331.707733 680.686933c0 27.989333-7.714133 49.493333-23.108266 64.6144-15.394133 15.1552-37.034667 22.698667-64.887467 22.698667H189.508267v-167.5264H247.466667c26.897067 0 47.616 6.8608 62.2592 20.616533 14.6432 13.755733 21.947733 33.621333 21.947733 59.5968z m-47.0016 1.604267c0-15.36-3.003733-26.7264-9.1136-34.133333-6.0416-7.441067-15.291733-11.127467-27.648-11.127467h-13.175466v93.7984h10.069333c13.755733 0 23.825067-3.9936 30.242133-11.9808 6.4512-7.9872 9.6256-20.138667 9.6256-36.5568zM518.485333 683.997867c0 28.194133-6.929067 49.595733-20.753066 64.273066-13.824 14.677333-34.065067 22.016-60.757334 22.016-26.282667 0-46.421333-7.3728-60.416-22.1184-13.994667-14.711467-21.026133-36.181333-21.026133-64.4096 0-27.886933 6.9632-49.152 20.923733-63.863466 13.892267-14.711467 34.2016-22.084267 60.757334-22.084267 26.658133 0 46.865067 7.338667 60.6208 21.9136 13.755733 14.574933 20.616533 36.010667 20.616533 64.273067z m-115.268266 0c0 32.426667 11.229867 48.571733 33.792 48.571733 11.434667 0 19.933867-3.925333 25.463466-11.810133 5.5296-7.850667 8.328533-20.138667 8.328534-36.795734 0-16.725333-2.798933-29.0816-8.430934-37.034666-5.632-7.9872-13.994667-12.014933-25.156266-12.014934-22.664533 0.068267-33.9968 16.384-33.9968 49.083734zM623.3088 635.221333a28.842667 28.842667 0 0 0-25.1904 13.2096c-6.0416 8.8064-9.079467 20.957867-9.079467 36.488534 0 32.256 12.288 48.366933 36.795734 48.366933a75.093333 75.093333 0 0 0 21.538133-3.106133c6.9632-2.048 13.9264-4.539733 20.957867-7.441067v38.229333a115.6096 115.6096 0 0 1-47.445334 9.3184c-25.258667 0-44.6464-7.338667-58.1632-22.016-13.482667-14.677333-20.206933-35.84-20.206933-63.556266 0-17.339733 3.242667-32.5632 9.796267-45.738667 6.5536-13.175467 15.906133-23.2448 28.16-30.3104 12.288-7.0656 26.7264-10.581333 43.281066-10.581333 18.090667 0 35.396267 3.925333 51.882667 11.810133l-13.824 35.601067a159.744 159.744 0 0 0-18.568533-7.338667 64.887467 64.887467 0 0 0-19.933867-2.9696zM851.933867 768h-52.394667l-32.631467-52.360533-32.324266 52.360533h-51.2l55.534933-85.7088-52.224-81.8176h50.176l30.276267 51.780267 29.0816-51.780267h51.677866l-53.0432 85.333333 57.070934 82.193067z" fill="#FFFFFF" p-id="4568"></path></svg>